<svg width="25" height="25" viewBox="0 0 25 25" fill="none" xmlns="http://www.w3.org/2000/svg">
<path d="M18.4543 4.39355V20.3936H6.45435V9.19355L11.2543 4.39355H18.4543ZM18.4543 2.39355H10.4543L4.45435 8.39355V20.3936C4.45435 21.4936 5.35435 22.3936 6.45435 22.3936H18.4543C19.5543 22.3936 20.4543 21.4936 20.4543 20.3936V4.39355C20.4543 3.29355 19.5543 2.39355 18.4543 2.39355ZM9.95435 19.3936H7.95435V17.3936H9.95435V19.3936ZM16.9543 19.3936H14.9543V17.3936H16.9543V19.3936ZM9.95435 15.3936H7.95435V11.3936H9.95435V15.3936ZM13.4543 19.3936H11.4543V15.3936H13.4543V19.3936ZM13.4543 13.3936H11.4543V11.3936H13.4543V13.3936ZM16.9543 15.3936H14.9543V11.3936H16.9543V15.3936Z" fill="white"/>
</svg>
