<svg width="16" height="20" viewBox="0 0 16 20" fill="none" xmlns="http://www.w3.org/2000/svg">
<path d="M8.90883 2C11.7206 2 14 4.27939 14 7.09117V12C14 15.3137 11.3137 18 8 18C4.68629 18 2 15.3137 2 12V10.0804C2 7.97999 2.83438 5.96562 4.3196 4.4804L5.30883 3.49117C6.26361 2.53639 7.55857 2 8.90883 2ZM14 0H10.2426C7.52612 0 4.92087 1.07913 3 3C1.07913 4.92087 0 7.52612 0 10.2426V18C0 19.1 0.9 20 2 20H14C15.1 20 16 19.1 16 18V2C16 0.9 15.1 0 14 0ZM5.5 16C5.5 16.5523 5.05228 17 4.5 17C3.94772 17 3.5 16.5523 3.5 16C3.5 15.4477 3.94772 15 4.5 15C5.05228 15 5.5 15.4477 5.5 16ZM12.5 16C12.5 16.5523 12.0523 17 11.5 17C10.9477 17 10.5 16.5523 10.5 16C10.5 15.4477 10.9477 15 11.5 15C12.0523 15 12.5 15.4477 12.5 16ZM5.5 12C5.5 12.5523 5.05228 13 4.5 13C3.94772 13 3.5 12.5523 3.5 12V10C3.5 9.44771 3.94772 9 4.5 9C5.05228 9 5.5 9.44771 5.5 10V12ZM9 16C9 16.5523 8.55229 17 8 17C7.44772 17 7 16.5523 7 16V14C7 13.4477 7.44772 13 8 13C8.55229 13 9 13.4477 9 14V16ZM9 10C9 10.5523 8.55229 11 8 11C7.44772 11 7 10.5523 7 10C7 9.44771 7.44772 9 8 9C8.55229 9 9 9.44771 9 10ZM12.5 12C12.5 12.5523 12.0523 13 11.5 13C10.9477 13 10.5 12.5523 10.5 12V10C10.5 9.44771 10.9477 9 11.5 9C12.0523 9 12.5 9.44771 12.5 10V12Z" fill="white"/>
</svg>
